<mxfile host="65bd71144e">
    <diagram id="LQNDYMTSvdkQ-tSS1QnY" name="Page-1">
        <mxGraphModel dx="1410" dy="705" grid="1" gridSize="10" guides="1" tooltips="1" connect="1" arrows="1" fold="1" page="1" pageScale="1" pageWidth="850" pageHeight="1100" math="0" shadow="0">
            <root>
                <mxCell id="0"/>
                <mxCell id="1" parent="0"/>
                <mxCell id="2" value="&lt;span style=&quot;color: rgb(51, 51, 51); font-family: georgia, times, &amp;quot;times new roman&amp;quot;, serif; font-size: 14px; font-style: normal; font-weight: 400; letter-spacing: normal; text-indent: 0px; text-transform: none; word-spacing: 0px; background-color: rgb(255, 255, 255); display: inline; float: none;&quot;&gt;Design a class named Computer that holds the make, model, and amount of memory of a computer. Include methods to set the values for each data field, and include a method that displays all the values for each field. Create the class diagram and write the pseudocode that defines the class.&lt;/span&gt;" style="text;whiteSpace=wrap;html=1;" vertex="1" parent="1">
                    <mxGeometry x="60" y="160" width="550" height="70" as="geometry"/>
                </mxCell>
                <mxCell id="4" value="Computer&amp;nbsp;" style="whiteSpace=wrap;html=1;align=left;" vertex="1" parent="1">
                    <mxGeometry x="40" y="270" width="340" height="60" as="geometry"/>
                </mxCell>
                <mxCell id="5" value="make : string&lt;br&gt;model : string&lt;br&gt;memory : num" style="whiteSpace=wrap;html=1;align=left;" vertex="1" parent="1">
                    <mxGeometry x="40" y="330" width="340" height="90" as="geometry"/>
                </mxCell>
                <mxCell id="6" value="setMake( name : string) : void&lt;br&gt;setModel (mod : string) : void&lt;br&gt;setMemory (mem : num) : void&lt;br&gt;getMake() : string&lt;br&gt;getModel() : string&lt;br&gt;getMemory() : num" style="whiteSpace=wrap;html=1;align=left;" vertex="1" parent="1">
                    <mxGeometry x="40" y="420" width="340" height="130" as="geometry"/>
                </mxCell>
                <mxCell id="7" value="Class Computer&lt;br&gt;&amp;nbsp; &amp;nbsp;Declarations&lt;br&gt;&amp;nbsp; &amp;nbsp; &amp;nbsp; private num memory&lt;br&gt;&amp;nbsp; &amp;nbsp; &amp;nbsp; private string make&lt;br&gt;&amp;nbsp; &amp;nbsp; &amp;nbsp; private string model&lt;br&gt;&lt;br&gt;&amp;nbsp; &amp;nbsp;public void setMake(string name)&lt;br&gt;&amp;nbsp; &amp;nbsp;make = name&lt;br&gt;&amp;nbsp; &amp;nbsp;return&lt;br&gt;&lt;br&gt;&amp;nbsp; &amp;nbsp;public void setModel(string mod)&lt;br&gt;&amp;nbsp; &amp;nbsp;model = mod&lt;br&gt;&amp;nbsp; &amp;nbsp;return&lt;br&gt;&lt;br&gt;&amp;nbsp; &amp;nbsp;public void setMemory(num mem)&lt;br&gt;&amp;nbsp; &amp;nbsp;memory = mem&lt;br&gt;&amp;nbsp; &amp;nbsp;return&lt;br&gt;&lt;br&gt;&amp;nbsp; &amp;nbsp;public string getMake()&lt;br&gt;&amp;nbsp; &amp;nbsp;return make&lt;br&gt;&lt;br&gt;&amp;nbsp; &amp;nbsp;public string getModel()&lt;br&gt;&amp;nbsp; &amp;nbsp;return model&lt;br&gt;&lt;br&gt;&amp;nbsp; &amp;nbsp;public num getMemory()&lt;br&gt;&amp;nbsp; &amp;nbsp;return memory&lt;br&gt;" style="whiteSpace=wrap;html=1;align=left;" vertex="1" parent="1">
                    <mxGeometry x="440" y="270" width="350" height="390" as="geometry"/>
                </mxCell>
            </root>
        </mxGraphModel>
    </diagram>
</mxfile>